<svg width="100" height="30" viewBox="0 0 100 30" fill="none" xmlns="http://www.w3.org/2000/svg">
<g clip-path="url(#clip0_735_9904)">
<path d="M23.2851 18.7366C23.2851 25.8871 19.1366 29.9168 11.2356 29.9168C8.57621 29.9168 4.88314 29.4 2.0574 28.5901C1.71483 28.4931 1.4772 28.1842 1.4772 27.8277V6.98415C1.4772 5.96831 1.03364 5.00198 0.263342 4.34059C-0.198044 3.94455 -0.0574504 3.19604 0.516807 2.99604L8.32671 0.259403C8.83958 0.0792051 9.37819 0.461383 9.37819 1.00594V12.8911C11.4732 10.7584 13.9366 9.32475 16.2673 9.32475C20.2574 9.32277 23.2851 12.6139 23.2851 18.7366ZM14.8317 20.9881C14.8317 15.695 13.6851 13.0475 11.0396 13.0475C10.4475 13.0475 9.93265 13.2059 9.38017 13.4436V28.0832C9.38017 28.3802 9.54255 28.6614 9.81186 28.7901C10.2792 29.0158 10.8099 29.1287 11.3168 29.1287C13.3683 29.1267 14.8317 26.6772 14.8317 20.9881Z" fill="#0F0C0C"/>
<path d="M43.8951 29.206C43.8951 29.3802 43.7545 29.5228 43.5782 29.5228H34.8079C34.3723 29.5228 34.0178 29.1683 34.0178 28.7327V27.2713C32.1604 28.8515 30.0673 29.9188 27.8951 29.9188C25.3267 29.9188 23.5881 28.4574 23.5881 25.9683C23.5881 22.3347 27.4594 19.9228 34.0178 19.2119C34.0178 14.8654 32.2792 12.6931 29.2772 12.6931C29.2574 12.6931 29.2396 12.6931 29.2198 12.6931C28.4772 12.697 28.1901 11.7327 28.8238 11.3485C30.5406 10.305 32.5525 9.32477 34.2871 9.32477C39.2654 9.32477 41.9188 12.2198 41.9188 17.9485V27.2317C41.9188 28.1485 42.6614 28.8911 43.5782 28.8911C43.7545 28.8891 43.8951 29.0317 43.8951 29.206ZM34.0178 26.0416V20.8772C34.0178 20.2792 33.3782 19.903 32.8495 20.1802C31.3426 20.9703 30.7386 22.2852 30.7386 23.9901C30.7386 25.8475 31.5287 26.8337 33.1089 26.8337C33.1664 26.8337 33.2277 26.8317 33.2931 26.8277C33.703 26.8 34.0178 26.4515 34.0178 26.0416Z" fill="#0F0C0C"/>
<path d="M57.1998 26.2693C57.9424 26.2099 58.3682 27.1228 57.8177 27.6277C56.3068 29.0178 54.2038 29.9188 51.5563 29.9188C46.8553 29.9188 44.9979 27.1525 44.9979 22.0178V10.796H44.2295C43.481 10.796 43.1523 9.85147 43.7404 9.38612L51.6196 3.15642C52.1384 2.74652 52.8988 3.11483 52.8988 3.77622V4.90889C52.8988 7.81186 55.2513 10.1643 58.1543 10.1643C58.3285 10.1643 58.4711 10.3049 58.4711 10.4812C58.4711 10.6554 58.3305 10.798 58.1543 10.798H52.8988V20C52.8988 24.5822 53.9662 26.2812 56.8889 26.2812C56.988 26.2831 57.0909 26.2772 57.1998 26.2693Z" fill="#0F0C0C"/>
<path d="M57.8792 20.0416C57.9188 14.2337 62.0277 9.32477 68.7425 9.32477C69.7861 9.32477 70.8118 9.44358 71.8237 9.60992C73.9405 9.96041 75.1009 11.899 75.1009 14.0574L75.1108 19.6475C75.0118 20.3584 74.093 20.5782 73.6811 19.9921C71.5623 16.9723 66.295 10.9168 64.5148 10.9168C63.5267 10.9168 62.9346 11.6277 62.9346 13.0495C62.9346 19.4099 69.1762 26.1267 74.7465 26.1267H74.7623C75.2356 26.1248 75.4891 26.6911 75.1702 27.0416C73.3821 29.0099 70.8217 29.9188 67.794 29.9188C62.4217 29.9168 57.8396 26.1248 57.8792 20.0416Z" fill="#0F0C0C"/>
<path d="M99.7564 28.8891C98.8395 28.8891 98.097 28.1465 98.097 27.2297V15.299C98.097 11.2693 96.4574 9.32275 93.0989 9.32275C90.4118 9.32275 88.0217 10.7168 85.4534 12.9287V1.00591C85.4534 0.461359 84.9168 0.0811606 84.4019 0.259378L76.592 2.99403C76.0178 3.19601 75.8772 3.94255 76.3385 4.33859C77.1088 5.00195 77.5524 5.96631 77.5524 6.98215V27.2297C77.5524 28.1465 76.8098 28.8891 75.893 28.8891C75.7187 28.8891 75.5762 29.0297 75.5762 29.2059C75.5762 29.3822 75.7187 29.5227 75.893 29.5227H86.7187C86.893 29.5227 87.0356 29.3822 87.0356 29.2059C87.0356 29.0297 86.895 28.8891 86.7187 28.8891C86.0197 28.8891 85.4554 28.3227 85.4554 27.6257V15.2673C85.4554 13.9564 86.5148 12.893 87.8257 12.8891C89.4455 12.8891 90.196 13.9168 90.196 16.998V27.6257C90.196 28.3247 89.6296 28.8891 88.9326 28.8891C88.7583 28.8891 88.6158 29.0297 88.6158 29.2059C88.6158 29.3822 88.7583 29.5227 88.9326 29.5227H99.7583C99.9326 29.5227 100.075 29.3822 100.075 29.2059C100.075 29.0297 99.9306 28.8891 99.7564 28.8891Z" fill="#0F0C0C"/>
</g>
<defs>
<clipPath id="clip0_735_9904">
<rect width="100" height="30" fill="white"/>
</clipPath>
</defs>
</svg>
